<svg width="19" height="19" viewBox="0 0 19 19" fill="none" xmlns="http://www.w3.org/2000/svg">
<path fill-rule="evenodd" clip-rule="evenodd" d="M2.10232 10.5749C2.10232 6.63984 5.29229 3.44987 9.22732 3.44987C13.1623 3.44987 16.3523 6.63984 16.3523 10.5749C16.3523 14.5099 13.1623 17.6999 9.22732 17.6999C5.29229 17.6999 2.10232 14.5099 2.10232 10.5749ZM3.28982 10.5749C3.28982 13.8541 5.94813 16.5124 9.22732 16.5124C10.802 16.5124 12.3123 15.8868 13.4258 14.7733C14.5393 13.6598 15.1648 12.1496 15.1648 10.5749C15.1648 7.29567 12.5065 4.63737 9.22732 4.63737C5.94813 4.63737 3.28982 7.29567 3.28982 10.5749Z" fill="#414141"/>
<path d="M7.3669 7.55862C7.13296 7.34062 6.76839 7.34706 6.54228 7.57316C6.31617 7.79927 6.30974 8.16384 6.52773 8.39778L8.63357 10.5036V13.7415C8.63357 14.0695 8.8994 14.3353 9.22732 14.3353C9.55524 14.3353 9.82107 14.0695 9.82107 13.7415V10.2582C9.82093 10.1008 9.75828 9.94986 9.6469 9.83862L7.3669 7.55862Z" fill="#414141"/>
<path d="M16.7719 4.63737C15.7945 3.33389 14.4963 2.30566 13.0036 1.65278C12.8579 1.58675 12.6917 1.58228 12.5427 1.6404C12.3937 1.69852 12.2744 1.8143 12.2119 1.96153C12.1435 2.10692 12.1379 2.274 12.1963 2.42367C12.2546 2.57335 12.3719 2.69248 12.5207 2.7532C13.8245 3.32687 14.9587 4.22659 15.814 5.3657C15.9261 5.51521 16.1021 5.6032 16.289 5.6032C16.4175 5.60378 16.5427 5.56205 16.6452 5.48445C16.7771 5.39096 16.8651 5.24776 16.889 5.08789C16.9129 4.92803 16.8706 4.76534 16.7719 4.63737Z" fill="#414141"/>
<path d="M2.63273 5.34987C3.48804 4.21075 4.62222 3.31104 5.92607 2.73737C6.07481 2.67665 6.19209 2.55752 6.25046 2.40784C6.30883 2.25816 6.30318 2.09108 6.23482 1.9457C6.17231 1.79847 6.05304 1.68268 5.90402 1.62456C5.755 1.56645 5.58883 1.57091 5.44315 1.63695C3.95152 2.29542 2.65594 3.32915 1.68273 4.63737C1.51173 4.89228 1.56321 5.23551 1.80148 5.42903C1.90399 5.50663 2.02917 5.54836 2.15773 5.54778C2.33792 5.55741 2.5127 5.48459 2.63273 5.34987Z" fill="#414141"/>
</svg>
