<?xml version="1.0" standalone="no"?>
<svg xmlns="http://www.w3.org/2000/svg" viewBox="0 0 100 100" preserveAspectRatio="none">
  <path fill="#273036" fill-opacity="0.2" d="
    M100,100
    L0,100
    L0,63.33
    L2,62.91
    L4,61.68
    L6,59.72
    L8,57.14
    L10,54.12
    L12,50.84
    L14,47.50
    L16,44.32
    L18,41.50
    L20,39.21
    L22,37.60
    L24,36.77
    L26,36.77
    L28,37.60
    L30,39.21
    L32,41.50
    L34,44.32
    L36,47.50
    L38,50.84
    L40,54.12
    L42,57.14
    L44,59.72
    L46,61.68
    L48,62.91
    L50,63.33
    L52,62.91
    L54,61.68
    L56,59.72
    L58,57.14
    L60,54.12
    L62,50.84
    L64,47.50
    L66,44.32
    L68,41.50
    L70,39.21
    L72,37.60
    L74,36.77
    L76,36.77
    L78,37.60
    L80,39.21
    L82,41.50
    L84,44.32
    L86,47.50
    L88,50.84
    L90,54.12
    L92,57.14
    L94,59.72
    L96,61.68
    L98,62.91
    L100,63.33
    Z" />
</svg>
